<?xml version="1.0" standalone="no"?>
<!DOCTYPE svg PUBLIC "-//W3C//DTD SVG 20010904//EN"
 "http://www.w3.org/TR/2001/REC-SVG-20010904/DTD/svg10.dtd">
<svg version="1.0" xmlns="http://www.w3.org/2000/svg"
 width="275.000000pt" height="183.000000pt" viewBox="0 0 275.000000 183.000000"
 preserveAspectRatio="xMidYMid meet">

<g transform="translate(0.000000,183.000000) scale(0.100000,-0.100000)"
fill="#000000" stroke="none">
<path d="M759 1759 c-39 -15 -63 -105 -38 -150 14 -27 31 -13 24 21 -14 64 50
138 82 94 19 -26 16 -69 -7 -114 -23 -44 -22 -45 15 -28 21 9 25 18 25 52 0
58 -18 114 -40 126 -22 12 -26 12 -61 -1z"/>
<path d="M495 1753 c25 -20 12 -39 -69 -96 -36 -25 -32 -56 22 -190 17 -39 15
-64 -4 -71 -9 -4 -14 -9 -11 -13 4 -3 13 -1 20 6 15 12 47 5 47 -10 0 -4 -8
-13 -17 -19 -15 -10 -14 -11 10 -7 30 5 35 -4 12 -23 -8 -7 -15 -16 -15 -21 0
-13 47 -11 73 2 21 12 21 11 6 -12 -9 -13 -15 -32 -13 -41 3 -20 -8 -30 -53
-47 -36 -14 -24 -19 -171 62 -94 52 -110 68 -153 154 -17 34 -37 64 -45 67 -8
3 -14 16 -15 28 -1 16 -4 13 -10 -12 -19 -80 23 -200 93 -267 63 -60 113 -78
213 -78 96 0 137 14 203 70 27 23 30 29 21 58 -12 41 -12 117 0 117 5 0 13 10
16 23 4 12 18 43 31 70 22 41 24 52 14 81 -15 45 -83 122 -129 145 -40 21 -91
37 -76 24z m32 -128 c-29 -26 -68 -25 -46 1 6 8 14 12 18 10 3 -2 15 0 26 5
32 12 32 10 2 -16z m78 -38 c6 -22 9 -69 6 -94 -4 -39 -94 11 -116 63 -8 20
-15 37 -15 39 0 1 16 1 35 0 20 0 41 3 48 7 22 14 36 8 42 -15z"/>
<path d="M1661 1733 c-68 -34 -105 -129 -77 -197 15 -36 15 -38 -2 -31 -39 17
-130 17 -181 0 -123 -40 -204 -194 -159 -302 6 -15 12 -31 12 -35 1 -3 4 -10
9 -14 15 -16 6 -26 -10 -12 -27 24 -91 41 -126 34 -120 -23 -176 -152 -110
-253 32 -51 83 -76 144 -71 41 3 46 6 71 53 15 28 29 55 31 60 2 6 10 5 20 -4
15 -12 18 -10 28 15 10 28 8 59 -7 97 -5 14 3 11 37 -12 57 -40 136 -56 204
-40 164 37 243 211 166 364 -16 31 -24 52 -18 46 14 -14 30 -14 22 -1 -3 6 1
7 9 4 24 -9 19 7 -11 38 -29 30 -54 90 -44 106 9 14 43 18 61 7 11 -7 10 -2
-4 19 -13 21 -15 31 -7 36 7 4 13 16 14 28 0 11 12 27 25 34 22 11 26 10 48
-17 13 -17 24 -42 24 -57 0 -16 5 -28 10 -28 12 0 13 -47 1 -52 -14 -5 -25
-88 -11 -88 6 0 8 5 4 12 -5 7 -2 9 9 5 9 -3 18 0 21 9 3 8 13 14 22 14 10 0
14 3 11 7 -4 3 -2 12 4 20 9 9 8 13 0 13 -15 0 -14 53 1 68 19 19 -29 100 -74
123 -46 23 -121 24 -167 2z m56 -75 c-3 -8 -6 -5 -6 6 -1 11 2 17 5 13 3 -3 4
-12 1 -19z m-47 -189 c0 -5 7 -5 17 -2 11 4 14 3 9 -5 -10 -16 -17 -15 -46 8
-24 19 -24 19 -2 13 12 -3 22 -9 22 -14z m-172 -102 c7 -9 18 -15 23 -12 17
11 30 -5 19 -24 -12 -24 -46 -33 -61 -15 -6 7 -14 13 -17 12 -20 -2 -32 3 -27
12 4 6 20 9 37 6 18 -3 27 -1 22 4 -5 5 -22 11 -38 13 -41 5 -44 24 -4 23 19
-1 39 -9 46 -19z m108 -31 c17 -13 17 -14 1 -12 -19 2 -47 26 -31 26 6 0 19
-6 30 -14z m-192 -27 c-9 -15 -34 -10 -28 5 3 8 12 12 20 9 8 -3 11 -9 8 -14z
m231 -37 c1 -12 -5 -27 -12 -34 -11 -9 -15 -7 -20 10 -3 12 -9 22 -14 22 -16
0 -9 18 9 23 27 7 35 2 37 -21z m-211 -5 c3 4 6 2 6 -3 0 -6 -5 -15 -11 -21
-6 -6 -10 -33 -8 -61 3 -39 1 -48 -8 -40 -7 6 -13 7 -13 2 0 -11 -20 18 -20
29 0 4 5 6 12 5 21 -5 22 33 1 38 -15 4 -18 12 -15 34 4 25 7 28 27 20 13 -5
26 -6 29 -3z m147 -16 c23 -24 24 -32 5 -25 -19 7 -32 -16 -15 -27 12 -8 12
-10 0 -18 -15 -10 3 -26 19 -16 6 3 7 -1 4 -9 -3 -9 -10 -13 -15 -10 -5 3 -9
0 -9 -5 0 -6 7 -11 15 -11 8 0 15 5 15 12 0 6 3 8 7 5 8 -9 -26 -47 -42 -47
-18 0 -28 32 -14 41 8 5 5 10 -9 18 -16 9 -24 8 -36 -5 -20 -20 -20 -24 2 -40
15 -12 14 -13 -13 -14 -47 0 -60 12 -44 41 7 13 12 30 11 37 -3 11 38 33 56
31 4 -1 14 -1 22 0 13 1 13 2 0 11 -12 8 -10 10 10 11 14 0 19 3 12 6 -6 2
-10 9 -7 13 8 12 -68 7 -77 -5 -12 -16 -9 -25 7 -19 8 4 15 2 15 -3 0 -5 -16
-14 -35 -20 -37 -12 -45 -4 -20 21 8 8 15 20 15 26 0 32 92 33 121 1z m-411
-159 c41 -38 48 -115 9 -105 -29 8 -33 22 -13 44 17 19 17 20 -4 35 -12 8 -22
22 -22 30 0 19 7 18 30 -4z m-42 -85 c2 -11 -3 -17 -16 -17 -15 0 -19 5 -15
20 6 24 26 21 31 -3z m17 -37 c3 -5 -1 -10 -9 -10 -9 0 -16 5 -16 10 0 6 4 10
9 10 6 0 13 -4 16 -10z m-31 -79 c3 -5 -3 -11 -13 -14 -14 -3 -18 -1 -14 9 6
16 19 18 27 5z"/>
<path d="M1460 1131 c0 -6 4 -12 8 -15 5 -3 9 1 9 9 0 8 -4 15 -9 15 -4 0 -8
-4 -8 -9z"/>
<path d="M240 1610 c-14 -3 -25 -11 -25 -18 0 -7 -6 -17 -14 -21 -7 -5 -12
-14 -9 -21 3 -10 7 -10 18 1 8 8 32 15 53 16 37 1 38 1 22 -16 -14 -16 -14
-19 -1 -24 19 -8 35 13 29 38 -2 11 -5 25 -5 32 -2 14 -35 21 -68 13z"/>
<path d="M1772 1608 c5 -13 38 -20 38 -8 0 4 -9 10 -21 13 -12 3 -19 1 -17 -5z"/>
<path d="M1073 1570 c-13 -5 -23 -15 -23 -21 0 -8 4 -8 13 -1 6 6 16 10 22 10
5 0 11 5 13 11 4 13 4 13 -25 1z"/>
<path d="M1110 1564 c0 -12 3 -14 13 -6 17 14 61 -4 54 -22 -5 -13 6 -23 27
-24 5 0 18 -15 30 -33 18 -29 21 -31 24 -14 2 11 10 25 18 32 13 9 12 14 -8
33 -48 47 -158 70 -158 34z m100 -28 c0 -3 -4 -8 -10 -11 -5 -3 -10 -1 -10 4
0 6 5 11 10 11 6 0 10 -2 10 -4z"/>
<path d="M1901 1564 c0 -11 3 -14 6 -6 3 7 2 16 -1 19 -3 4 -6 -2 -5 -13z"/>
<path d="M1705 1540 c-8 -13 4 -50 16 -50 6 0 5 8 -1 20 -6 11 -8 25 -5 30 3
6 4 10 1 10 -3 0 -8 -5 -11 -10z"/>
<path d="M1021 1484 c0 -11 3 -14 6 -6 3 7 2 16 -1 19 -3 4 -6 -2 -5 -13z"/>
<path d="M1044 1449 c-10 -17 11 -33 32 -21 16 9 16 10 -4 21 -15 8 -23 8 -28
0z"/>
<path d="M1136 1452 c-12 -11 -5 -19 14 -17 28 2 34 12 11 18 -11 2 -22 2 -25
-1z"/>
<path d="M306 1404 c-21 -21 -39 -54 -32 -61 7 -8 56 47 56 63 0 18 -5 18 -24
-2z"/>
<path d="M1098 1333 c7 -3 16 -2 19 1 4 3 -2 6 -13 5 -11 0 -14 -3 -6 -6z"/>
<path d="M1075 1310 c3 -5 11 -10 16 -10 6 0 7 5 4 10 -3 6 -11 10 -16 10 -6
0 -7 -4 -4 -10z"/>
<path d="M1170 1290 c-13 -8 -13 -10 2 -10 9 0 20 5 23 10 8 13 -5 13 -25 0z"/>
<path d="M643 1183 c-22 -34 -33 -193 -13 -193 7 0 19 -8 26 -17 12 -16 13
-13 11 24 -1 23 -7 46 -11 50 -5 5 -6 -1 -2 -12 5 -13 4 -17 -3 -10 -5 6 -13
22 -16 38 -6 20 -4 27 8 27 8 0 18 -6 20 -12 4 -10 6 -10 6 0 1 7 -6 15 -14
18 -21 8 -19 27 4 48 22 20 54 15 86 -15 30 -27 46 -12 30 29 -24 56 -102 71
-132 25z"/>
<path d="M1767 1143 c-10 -9 -9 -25 1 -19 15 9 52 -23 46 -39 -4 -8 -1 -15 5
-15 16 0 24 26 17 55 -5 19 -13 25 -35 25 -15 0 -31 -3 -34 -7z"/>
<path d="M2278 1130 c-126 -51 -185 -116 -235 -257 -12 -35 -17 -85 -18 -183
-2 -148 -10 -179 -67 -253 l-32 -42 32 29 c36 34 38 32 16 -12 -11 -24 -22
-32 -42 -32 -15 0 -40 -9 -57 -21 -16 -11 -23 -19 -15 -18 8 1 23 1 34 0 15
-1 16 -4 7 -15 -10 -12 -9 -14 6 -12 18 3 42 -27 42 -54 1 -13 0 -13 -9 0 -5
8 -12 12 -15 8 -4 -3 4 -15 16 -26 13 -13 19 -27 15 -37 -3 -10 12 -57 36
-111 l42 -94 358 0 358 0 0 190 0 190 -25 12 c-16 7 -36 35 -56 77 -32 69 -33
82 -11 204 10 54 -3 141 -36 253 -18 60 -31 80 -81 131 -32 33 -73 68 -91 77
-43 21 -114 20 -172 -4z m122 -162 c0 -4 10 -8 21 -8 18 0 19 -3 10 -14 -9
-11 -10 -20 -1 -36 14 -26 7 -36 -26 -43 -37 -7 -89 12 -75 26 6 6 11 23 11
37 0 14 4 30 10 36 12 12 50 13 50 2z m-106 -153 c22 -16 21 -16 -11 -20 -17
-2 -23 3 -23 16 0 23 8 23 34 4z m79 -30 c-7 -21 -13 -19 -13 6 0 11 4 18 10
14 5 -3 7 -12 3 -20z m115 7 c2 -7 -5 -12 -17 -12 -14 0 -19 5 -14 15 6 17 25
15 31 -3z m-28 -47 c16 -19 0 -19 -26 0 -16 12 -16 14 -3 15 9 0 22 -7 29 -15z
m-160 -40 c0 -28 -4 -35 -20 -35 -22 0 -26 20 -10 51 16 30 30 23 30 -16z
m165 -3 c6 -17 -12 -42 -31 -42 -8 0 -14 8 -14 18 0 9 -3 27 -6 40 -6 21 -5
22 19 11 14 -6 28 -18 32 -27z m-85 13 c0 -8 -9 -15 -20 -15 -13 0 -18 5 -14
15 4 8 12 15 20 15 8 0 14 -7 14 -15z m-10 -185 c0 -5 -11 -10 -25 -10 -14 0
-25 5 -25 10 0 6 11 10 25 10 14 0 25 -4 25 -10z"/>
<path d="M768 1073 c-24 -45 -23 -68 3 -70 26 -2 31 12 22 63 l-8 42 -17 -35z"/>
<path d="M1746 1084 c-9 -35 -4 -39 11 -8 6 13 8 26 3 29 -4 3 -11 -7 -14 -21z"/>
<path d="M1735 1030 c-3 -5 -1 -10 4 -10 6 0 11 5 11 10 0 6 -2 10 -4 10 -3 0
-8 -4 -11 -10z"/>
<path d="M1740 955 c0 -9 6 -12 15 -9 8 4 12 10 9 15 -8 14 -24 10 -24 -6z"/>
<path d="M163 909 c-40 -11 -73 -63 -73 -114 0 -29 7 -44 34 -71 35 -35 66
-44 66 -20 0 8 -4 17 -10 21 -5 3 -7 13 -4 23 5 13 4 14 -4 3 -8 -11 -12 -10
-21 7 -9 16 -8 24 5 36 8 9 11 16 5 16 -18 0 -12 46 8 64 26 24 66 12 81 -25
7 -16 16 -26 20 -24 15 9 22 -15 10 -30 -14 -17 -6 -45 12 -45 9 0 9 3 -2 10
-12 8 -12 10 3 16 37 14 1 116 -46 129 -43 12 -52 13 -84 4z"/>
<path d="M1531 764 c0 -11 3 -14 6 -6 3 7 2 16 -1 19 -3 4 -6 -2 -5 -13z"/>
<path d="M294 739 c-35 -10 -99 -75 -114 -115 -27 -69 2 -181 57 -224 30 -24
53 -26 53 -5 0 9 6 12 15 9 11 -5 13 -2 9 10 -4 10 -1 16 7 16 8 0 5 8 -8 23
-29 32 -45 66 -37 79 5 8 10 5 14 -8 4 -11 8 2 8 35 1 29 6 59 10 65 5 6 15
32 22 59 7 26 17 50 22 53 5 4 27 -12 48 -35 22 -23 43 -43 47 -44 4 -1 7 -10
6 -20 -2 -10 2 -15 7 -12 6 3 10 5 10 3 0 -2 9 -28 20 -58 l19 -55 1 78 c0 43
-5 87 -11 99 -24 45 -129 69 -205 47z m-73 -126 c-9 -15 -10 -14 -7 7 6 35 7
37 12 23 3 -7 1 -20 -5 -30z m66 -30 c-3 -10 -5 -4 -5 12 0 17 2 24 5 18 2 -7
2 -21 0 -30z"/>
<path d="M1667 716 c-3 -7 -1 -18 5 -24 6 -6 6 -12 -1 -16 -6 -4 -11 -22 -11
-40 0 -19 -7 -39 -15 -46 -8 -7 -15 -20 -15 -29 0 -9 -5 -22 -12 -29 -7 -7
-13 -57 -16 -126 -4 -94 -8 -118 -22 -131 -17 -15 -19 -15 -29 3 -14 26 -15
232 -1 301 5 30 8 56 5 59 -3 3 0 11 6 18 6 7 8 18 4 24 -12 20 -21 10 -22
-28 -1 -20 -16 -78 -33 -127 -75 -214 -122 -434 -106 -498 l6 -27 176 0 c160
0 178 2 201 20 25 20 25 20 50 0 21 -16 41 -20 104 -20 44 0 79 3 79 7 0 13
-144 308 -154 315 -23 16 -26 7 -10 -24 20 -39 28 -88 14 -88 -6 0 -10 5 -10
10 0 6 -5 10 -10 10 -6 0 -8 -12 -4 -28 4 -18 3 -23 -4 -13 -7 9 -19 11 -42 6
-44 -10 -70 -34 -70 -67 0 -27 -29 -46 -50 -33 -6 3 -13 -1 -16 -9 -37 -96
-41 233 -5 391 11 50 30 115 41 143 21 52 18 73 -13 99 -12 9 -16 8 -20 -3z"/>
<path d="M1716 722 c-2 -4 -1 -14 3 -21 6 -10 10 -9 14 3 6 16 -8 32 -17 18z"/>
<path d="M715 710 c-22 -8 -53 -40 -40 -40 4 0 0 -11 -8 -24 -13 -19 -14 -31
-5 -64 13 -53 38 -65 38 -17 0 18 4 46 10 60 8 22 15 26 42 23 25 -2 36 -11
54 -43 14 -24 20 -49 17 -62 -3 -14 -1 -23 6 -23 21 0 51 40 53 70 0 17 1 35
2 40 1 6 -14 28 -33 50 -30 35 -39 40 -75 39 -23 0 -50 -4 -61 -9z"/>
<path d="M367 469 c7 -7 15 -10 18 -7 3 3 -2 9 -12 12 -14 6 -15 5 -6 -5z"/>
<path d="M623 423 c-7 -2 -13 -9 -13 -15 0 -6 7 -7 15 -4 11 4 15 0 13 -12 -2
-9 -12 -20 -23 -23 -15 -4 -8 -8 24 -13 l43 -8 -6 -38 c-4 -27 -2 -41 9 -50
11 -9 12 -17 4 -32 -7 -14 -7 -23 1 -33 7 -8 9 -19 5 -25 -11 -18 11 -11 30
10 18 19 18 22 2 56 -20 42 -23 109 -4 98 9 -6 9 -4 -1 8 -7 8 -10 23 -6 31 4
11 -6 22 -35 36 -22 12 -42 21 -43 20 -2 0 -9 -3 -15 -6z"/>
<path d="M615 341 c-3 -5 2 -11 10 -15 8 -3 17 -1 20 3 3 5 -2 11 -10 15 -8 3
-17 1 -20 -3z"/>
<path d="M495 331 c-3 -5 2 -11 10 -15 8 -3 17 -1 20 3 3 5 -2 11 -10 15 -8 3
-17 1 -20 -3z"/>
<path d="M604 211 c4 -5 1 -12 -4 -14 -6 -3 -5 -4 2 -3 15 3 23 26 8 26 -6 0
-9 -4 -6 -9z"/>
<path d="M492 202 c-22 -14 55 -72 95 -72 16 1 15 2 -4 13 -12 7 -31 24 -43
40 -23 29 -28 31 -48 19z"/>
<path d="M1020 10 c0 -5 12 -10 28 -9 24 0 25 1 7 9 -27 12 -35 12 -35 0z"/>
</g>
</svg>
